<?xml version="1.0" standalone="no"?>
<!DOCTYPE svg PUBLIC "-//W3C//DTD SVG 20010904//EN"
 "http://www.w3.org/TR/2001/REC-SVG-20010904/DTD/svg10.dtd">
<svg version="1.0" xmlns="http://www.w3.org/2000/svg"
 width="190.000000pt" height="265.000000pt" viewBox="0 0 190.000000 265.000000"
 preserveAspectRatio="xMidYMid meet">

<g transform="translate(0.000000,265.000000) scale(0.100000,-0.100000)"
fill="#000000" stroke="none">
<path d="M823 2630 c-146 -21 -332 -92 -460 -177 -80 -53 -215 -184 -263 -256
-22 -33 -50 -92 -63 -131 -22 -71 -22 -75 -22 -746 l0 -675 23 -68 c76 -219
336 -433 638 -523 120 -36 330 -45 455 -19 226 45 430 156 582 314 82 86 127
157 154 246 16 56 18 110 18 735 l0 675 -23 65 c-35 95 -68 146 -155 237 -188
195 -451 316 -715 327 -59 3 -135 1 -169 -4z m372 -94 c185 -56 375 -171 485
-294 28 -31 70 -95 93 -141 l42 -84 3 -673 c2 -663 2 -674 -19 -736 -81 -241
-393 -465 -723 -518 -368 -60 -827 173 -967 490 l-24 55 -3 672 c-2 662 -2
673 19 735 74 222 328 421 643 504 80 21 108 24 226 20 111 -3 151 -8 225 -30z"/>
<path d="M909 2541 c-30 -12 -111 -85 -120 -109 -13 -34 13 -90 45 -98 14 -3
43 -3 64 0 20 4 54 7 74 6 27 0 41 5 52 22 19 26 21 99 4 116 -14 14 -64 16
-72 3 -4 -5 -16 -4 -30 2 l-25 12 20 21 c21 23 15 36 -12 25z m22 -93 c15 -28
2 -55 -32 -67 -33 -11 -73 -1 -82 22 -8 22 16 61 43 67 34 9 59 1 71 -22z m67
-24 c2 -28 -2 -45 -13 -54 -13 -11 -15 -8 -15 21 0 19 -3 45 -7 58 -5 19 -2
22 13 19 14 -2 20 -13 22 -44z"/>
<path d="M1097 2473 c-4 -3 -7 -15 -7 -25 0 -23 26 -24 39 0 9 15 10 14 11 -6
0 -27 -26 -40 -50 -24 -23 14 -30 6 -30 -34 0 -39 38 -74 81 -74 15 0 31 -4
34 -10 11 -17 64 -11 85 10 29 29 27 90 -4 119 -19 18 -33 22 -60 19 -24 -3
-36 0 -36 8 0 19 -48 32 -63 17z m121 -59 c12 -8 22 -25 22 -37 0 -28 -26 -67
-45 -67 -12 0 -12 5 0 34 13 31 13 36 -6 60 -24 30 -8 36 29 10z m-50 -27 c5
-23 -31 -39 -62 -27 -33 12 -34 30 -2 30 14 0 28 5 31 11 9 14 29 6 33 -14z"/>
<path d="M631 2413 c-16 -16 -36 -27 -48 -25 -24 4 -47 -22 -39 -44 8 -20 41
-13 40 9 -1 9 2 17 7 17 5 0 9 -13 9 -30 0 -23 -4 -30 -20 -30 -28 0 -25 -25
7 -49 28 -23 49 -21 93 7 14 9 31 17 38 18 53 9 70 87 27 129 -33 34 -79 33
-114 -2z m75 -21 c25 -16 35 -51 23 -74 -12 -23 -13 -23 -21 9 -9 35 -40 58
-65 49 -13 -5 -14 -4 -3 9 13 16 47 20 66 7z m-47 -50 c14 -27 -13 -62 -46
-62 -25 0 -25 1 -10 18 10 10 17 25 17 34 0 31 24 37 39 10z"/>
<path d="M1297 2322 c-28 -31 -22 -70 15 -92 51 -31 98 -6 98 51 0 52 -78 79
-113 41z m82 -16 c17 -20 2 -46 -25 -46 -26 0 -40 20 -30 45 7 19 40 20 55 1z"/>
<path d="M324 2226 c-47 -55 -79 -98 -85 -115 -4 -9 -21 -31 -38 -50 -35 -37
-37 -49 -17 -77 13 -17 13 -21 -7 -36 -18 -14 -23 -34 -34 -125 -6 -59 -13
-121 -16 -136 -6 -35 23 -72 61 -80 35 -7 84 4 90 21 3 9 -3 10 -23 2 -28 -11
-91 -4 -100 10 -3 4 2 14 11 21 13 11 17 10 25 -3 10 -19 77 -18 88 1 14 22
11 122 -3 127 -19 7 28 54 54 54 41 0 56 88 20 113 -23 16 -19 38 12 69 12 12
17 26 13 39 -4 13 -2 19 8 19 8 0 26 9 41 21 14 11 30 18 35 15 5 -3 11 3 14
14 3 11 11 20 17 20 8 0 10 -9 6 -25 -7 -29 1 -32 20 -7 16 20 18 68 4 77 -6
4 -17 1 -25 -5 -11 -9 -15 -9 -15 -1 0 21 -15 11 -31 -22 -17 -35 -50 -47 -75
-27 -20 17 -18 37 7 72 18 25 19 32 8 39 -24 15 -36 10 -65 -25z m39 -11 c-19
-26 -29 -30 -38 -16 -3 5 5 17 17 25 33 23 41 19 21 -9z m-36 -87 c10 -22 8
-23 -28 -23 l-39 -1 22 23 c27 29 32 29 45 1z m3 -53 c14 -17 4 -37 -18 -34
-30 3 -35 -1 -22 -16 16 -20 1 -38 -23 -29 -23 9 -23 70 1 83 24 15 48 13 62
-4z m-74 -105 c6 0 17 -7 24 -15 19 -22 -5 -20 -45 5 -39 24 -51 47 -27 52 11
3 21 -5 26 -19 6 -13 15 -23 22 -23z m90 -65 c-10 -26 -31 -11 -34 24 l-3 33
22 -20 c13 -13 19 -27 15 -37z m-68 18 c25 -6 26 -11 12 -47 -6 -18 -17 -26
-33 -26 -32 0 -47 18 -47 58 0 31 2 34 23 27 12 -3 32 -9 45 -12z m-86 -18
c-2 -14 -8 -25 -13 -25 -10 0 -12 34 -2 43 13 14 20 6 15 -18z m16 -87 c7 -10
2 -20 -19 -39 -30 -28 -36 -20 -19 25 10 29 22 33 38 14z m42 -68 c0 -11 -7
-20 -15 -20 -8 0 -15 -4 -15 -10 0 -5 5 -10 10 -10 17 0 11 -30 -6 -37 -21 -8
-44 22 -44 57 0 34 7 40 42 40 21 0 28 -5 28 -20z"/>
<path d="M885 2254 c-135 -21 -255 -84 -360 -189 -86 -86 -128 -158 -145 -246
-13 -68 -13 -920 0 -988 17 -92 57 -160 144 -246 130 -129 266 -189 425 -186
161 2 290 59 417 186 87 87 127 154 144 244 13 70 13 921 0 990 -33 173 -221
359 -420 415 -61 17 -159 26 -205 20z m139 -59 c208 -44 385 -197 431 -370 21
-84 22 -913 1 -995 -54 -205 -291 -382 -512 -382 -163 0 -354 106 -449 251
-75 113 -77 124 -73 653 3 522 0 494 85 615 88 126 281 235 428 242 11 0 51
-6 89 -14z"/>
<path d="M849 2122 c-170 -45 -328 -208 -358 -367 -14 -72 -14 -785 0 -859 34
-190 234 -368 429 -383 63 -5 86 -2 146 19 97 34 176 89 240 167 101 122 99
107 99 627 l0 450 -37 75 c-102 205 -326 322 -519 271z m201 -47 c72 -22 140
-64 201 -125 69 -68 105 -136 119 -224 13 -84 12 -742 -2 -816 -38 -206 -286
-389 -477 -351 -135 27 -278 136 -337 256 l-29 60 0 450 0 450 30 59 c42 82
130 167 219 211 108 54 174 61 276 30z"/>
<path d="M940 1975 l-5 -100 -43 43 c-42 42 -43 43 -105 40 -55 -3 -62 -5 -65
-25 -4 -28 38 -58 69 -48 19 6 21 4 14 -11 -4 -11 -10 -30 -12 -44 -10 -56
-14 -70 -21 -70 -4 0 -30 45 -57 100 -27 56 -51 97 -53 91 -2 -5 17 -50 42
-100 38 -74 46 -100 46 -145 0 -30 -4 -58 -10 -61 -5 -3 -10 -22 -10 -42 l0
-36 -82 101 c-46 55 -84 96 -86 92 -2 -5 29 -48 68 -94 67 -80 71 -87 66 -125
-2 -22 0 -59 5 -82 5 -23 8 -46 7 -50 -2 -5 -38 14 -81 43 -42 28 -80 48 -83
45 -4 -3 35 -32 85 -64 l91 -58 0 -42 c0 -24 -4 -43 -8 -43 -5 0 -45 13 -90
30 -45 16 -82 26 -82 21 0 -8 137 -61 159 -61 16 0 31 -35 31 -74 l0 -35 -97
-4 -98 -3 98 -2 98 -2 15 -36 c9 -20 12 -40 7 -44 -4 -5 -50 -20 -102 -34 -52
-14 -99 -31 -105 -37 -8 -9 -7 -11 4 -7 8 3 59 18 113 33 l97 27 20 -23 c10
-13 19 -26 19 -29 0 -3 -56 -30 -126 -59 -69 -30 -121 -57 -115 -59 6 -2 66
21 134 51 115 51 125 54 150 41 15 -8 40 -14 55 -15 15 0 -17 -9 -72 -19 -112
-20 -169 -39 -232 -76 l-43 -25 22 -40 c35 -61 147 -162 221 -199 145 -71 293
-42 436 86 55 49 116 138 106 154 -21 33 -192 94 -298 105 -76 8 -83 23 -20
41 38 11 46 9 174 -47 73 -32 138 -59 143 -59 23 0 -16 21 -133 71 l-124 54
44 19 c44 19 44 19 132 -4 48 -12 90 -20 93 -17 5 5 -55 24 -128 42 -33 8 -35
16 -9 32 11 7 26 25 33 40 11 24 21 29 63 34 50 6 44 13 -8 9 l-27 -2 4 73 c3
71 4 73 34 83 17 6 34 15 39 20 7 8 -10 5 -58 -10 -11 -4 -19 6 -28 35 -6 23
-16 41 -22 41 -6 0 -7 -5 -3 -12 4 -7 3 -8 -4 -4 -20 12 -14 20 51 60 34 22
64 41 66 43 2 2 2 6 -1 9 -4 3 -31 -11 -62 -32 -31 -20 -58 -35 -61 -33 -16
17 -54 81 -57 98 -2 13 25 54 80 121 46 56 82 105 80 110 -2 5 -39 -36 -83
-90 -44 -55 -83 -99 -87 -100 -5 0 -8 10 -8 21 0 19 -4 21 -30 16 -17 -4 -30
-2 -30 3 0 6 7 10 15 10 19 0 19 29 0 44 -12 9 -5 32 44 149 33 75 56 139 52
141 -4 3 -31 -53 -61 -125 -29 -71 -57 -129 -60 -129 -11 0 -36 32 -54 67 -9
18 -30 48 -46 66 -28 32 -29 40 -32 133 l-3 99 -5 -100z m-96 -53 c6 -9 -81
-9 -90 1 -4 4 13 7 39 7 25 0 48 -3 51 -8z m84 -74 c8 -8 13 -55 14 -132 l2
-121 3 113 c2 61 7 112 11 112 7 0 52 -65 52 -76 0 -4 13 -22 30 -40 l30 -34
-25 -56 c-14 -31 -25 -64 -24 -73 0 -9 9 4 20 29 12 26 23 40 27 33 4 -6 18
-13 32 -14 39 -6 38 -42 -4 -91 -20 -23 -36 -46 -36 -52 0 -6 17 8 38 32 l37
42 21 -32 c42 -64 41 -73 -19 -112 -50 -32 -77 -56 -62 -56 3 0 33 18 65 40
l59 40 20 -26 c37 -47 29 -57 -64 -88 -47 -15 -85 -31 -85 -36 0 -4 37 5 83
20 48 17 86 25 91 20 5 -5 5 -31 0 -62 l-9 -53 -83 -1 c-46 -1 -86 -5 -89 -8
-4 -3 30 -6 75 -6 51 0 82 -4 82 -11 0 -16 -62 -69 -81 -69 -9 0 -30 5 -47 11
-17 6 -37 9 -44 6 -7 -3 2 -8 20 -12 18 -4 35 -12 38 -16 6 -11 -42 -31 -73
-31 -13 0 -23 -4 -23 -8 0 -4 -12 -10 -26 -13 -26 -5 -26 -3 -22 37 3 22 18
72 33 109 34 85 40 131 26 183 -13 48 -52 94 -79 94 -17 0 -19 -7 -18 -57 1
-41 -6 -74 -23 -113 -31 -71 -38 -161 -17 -220 8 -24 13 -46 11 -48 -9 -10
-36 9 -29 20 5 7 1 9 -14 6 -13 -4 -27 1 -39 14 -17 19 -17 20 0 33 23 16 22
24 -3 18 -15 -4 -22 2 -30 22 -14 38 -13 44 10 40 11 -2 20 0 20 6 0 5 -11 9
-25 9 -23 0 -25 4 -25 41 0 36 2 41 20 36 11 -3 20 -1 20 4 0 5 -11 11 -24 15
-17 4 -25 14 -29 37 -6 43 0 51 29 32 34 -22 30 -3 -5 23 -36 26 -49 84 -28
125 l14 28 31 -38 c17 -21 31 -33 32 -26 0 6 -16 30 -36 54 -32 38 -35 46 -28
83 3 23 10 46 14 51 5 6 10 21 12 34 2 19 10 10 37 -48 19 -39 39 -71 43 -71
5 0 -12 39 -36 88 -44 87 -44 88 -25 111 11 14 19 39 19 62 0 37 2 39 24 33
14 -3 33 -1 43 5 23 13 27 13 41 -1z m56 -472 c33 -70 31 -92 -19 -226 -10
-25 -21 -70 -25 -100 l-7 -55 -18 40 c-27 58 -26 156 4 220 12 28 25 74 28
103 3 28 9 52 13 52 4 0 15 -15 24 -34z m-117 -481 c-22 -18 -60 -41 -85 -49
-49 -17 -177 -22 -186 -7 -14 22 187 89 269 90 l40 0 -38 -34z m257 19 c70
-18 176 -63 176 -75 0 -12 -78 -15 -134 -6 -60 10 -112 36 -145 71 l-24 26 32
0 c18 0 61 -7 95 -16z"/>
<path d="M1524 2190 c-27 -11 -54 -48 -54 -74 0 -31 38 -83 70 -96 59 -24 119
26 107 89 -6 29 -5 30 18 19 14 -6 28 -8 32 -4 14 14 -13 39 -45 42 -18 2 -46
11 -62 19 -33 17 -36 17 -66 5z m83 -42 c29 -27 30 -62 2 -81 -25 -18 -55 -11
-74 16 -44 63 17 117 72 65z"/>
<path d="M1668 2007 c-7 -7 -28 -12 -45 -13 -49 -2 -66 -21 -58 -63 10 -54 31
-81 63 -81 31 0 54 15 70 45 11 19 11 19 12 -5 0 -64 -78 -97 -113 -47 -12 17
-16 18 -16 6 -1 -9 8 -28 20 -43 42 -54 139 -19 139 50 0 19 -7 48 -15 63 -8
16 -12 31 -8 34 10 10 -6 55 -22 60 -8 4 -20 1 -27 -6z m10 -86 c-6 -51 -68
-34 -68 19 0 34 17 42 48 22 16 -11 22 -23 20 -41z m22 49 c0 -5 -5 -10 -11
-10 -5 0 -7 5 -4 10 3 6 8 10 11 10 2 0 4 -4 4 -10z"/>
<path d="M1600 1733 c-16 -20 -20 -36 -16 -58 4 -16 6 -46 6 -66 -1 -46 28
-73 76 -72 63 2 98 58 70 114 -8 16 -10 31 -5 35 13 7 11 48 -2 61 -16 16 -39
5 -39 -19 0 -15 5 -19 20 -15 11 3 18 1 14 -4 -8 -14 -40 -11 -54 6 -10 12
-10 18 0 30 11 13 8 15 -18 15 -21 0 -37 -8 -52 -27z m50 -13 c0 -10 9 -24 20
-30 24 -13 15 -42 -13 -38 -27 4 -41 30 -33 61 7 31 26 36 26 7z m56 -116
c-21 -31 -80 -34 -96 -5 -9 18 -7 19 24 14 28 -4 37 -1 52 20 15 20 21 22 27
10 5 -9 2 -23 -7 -39z"/>
<path d="M211 1581 c-8 -5 -20 -7 -28 -4 -29 11 -42 -16 -41 -95 0 -83 11
-111 35 -91 10 9 17 9 25 1 20 -20 56 -13 78 16 18 22 21 37 18 85 -2 32 -11
64 -19 71 -20 19 -52 27 -68 17z m-31 -58 c0 -34 -1 -36 -16 -21 -10 10 -14
23 -9 37 10 34 25 24 25 -16z m64 11 c11 -29 6 -101 -8 -113 -32 -27 -57 41
-40 107 7 25 39 30 48 6z m-64 -85 c0 -11 -4 -17 -10 -14 -5 3 -10 13 -10 21
0 8 5 14 10 14 6 0 10 -9 10 -21z"/>
<path d="M1610 1500 c-39 -39 -12 -120 39 -120 33 0 64 34 64 70 0 59 -63 90
-103 50z m84 -36 c7 -18 -2 -41 -19 -48 -14 -5 -45 18 -45 34 0 5 7 15 15 24
17 17 40 12 49 -10z"/>
<path d="M182 1243 c4 -22 43 -25 43 -3 0 8 -11 16 -23 18 -19 3 -23 0 -20
-15z"/>
<path d="M1660 1240 c0 -13 7 -20 20 -20 13 0 20 7 20 20 0 13 -7 20 -20 20
-13 0 -20 -7 -20 -20z"/>
<path d="M152 1117 c-29 -31 -31 -104 -3 -134 19 -20 19 -20 0 -36 -24 -21
-24 -48 -1 -77 14 -18 25 -22 45 -16 32 8 35 22 7 29 -12 3 -20 14 -20 26 0
29 31 27 70 -5 17 -15 33 -24 36 -22 2 3 0 26 -6 52 -7 33 -7 53 1 67 l11 21
14 -21 c9 -12 19 -21 25 -21 17 0 9 43 -12 64 -11 12 -31 37 -43 56 -18 29
-28 35 -62 38 -31 2 -44 -2 -62 -21z m106 -19 c16 -16 16 -80 0 -96 -16 -16
-53 -15 -66 1 -18 22 -21 64 -6 86 17 23 53 28 72 9z m-13 -148 c3 -5 2 -10
-4 -10 -5 0 -13 5 -16 10 -3 6 -2 10 4 10 5 0 13 -4 16 -10z"/>
<path d="M1655 1130 c-3 -5 -13 -6 -22 -3 -17 7 -43 -20 -43 -44 0 -15 35 -53
49 -53 6 0 11 17 13 38 3 32 6 37 28 37 33 0 42 -44 11 -52 -27 -7 -27 -19 -1
-26 28 -7 26 -45 -4 -58 -30 -14 -63 2 -72 36 -7 30 -24 33 -24 5 0 -12 11
-32 25 -45 31 -32 96 -34 125 -5 23 23 24 33 10 60 -7 13 -7 27 1 44 18 38
-10 76 -56 76 -18 0 -36 -4 -40 -10z m-15 -50 c0 -11 -7 -20 -15 -20 -15 0
-21 21 -8 33 12 13 23 7 23 -13z"/>
<path d="M1661 911 c-7 -5 -22 -6 -32 -4 -35 9 -47 -67 -15 -89 22 -15 36 -7
36 20 0 36 13 55 36 50 12 -2 20 -13 22 -31 3 -22 -1 -27 -17 -27 -27 0 -27
-17 0 -25 24 -8 23 -43 -4 -59 -23 -15 -69 11 -78 44 -5 22 -7 23 -14 7 -10
-23 18 -65 52 -78 60 -23 128 26 105 75 -6 14 -6 28 -1 39 29 50 -40 110 -90
78z m-21 -62 c0 -20 -15 -26 -25 -9 -9 15 3 43 15 35 5 -3 10 -15 10 -26z"/>
<path d="M260 840 c0 -5 -13 -7 -30 -3 -22 4 -36 0 -50 -12 -29 -26 -26 -75
11 -172 7 -20 -5 -43 -17 -31 -10 11 -35 124 -30 140 3 13 -2 18 -19 18 -13 0
-25 -6 -27 -12 -8 -21 35 -179 47 -175 5 3 37 10 70 17 80 16 102 27 115 59
13 32 1 74 -26 89 -11 6 -13 11 -5 16 15 9 14 49 -1 64 -14 14 -38 16 -38 2z
m-10 -34 c0 -2 3 -11 6 -20 4 -11 1 -16 -10 -16 -9 0 -16 -4 -16 -10 0 -5 5
-10 10 -10 6 0 10 -7 10 -16 0 -25 -34 -12 -44 17 -12 34 -2 59 24 59 11 0 20
-2 20 -4z m40 -77 c25 -45 -51 -94 -88 -57 -19 19 -14 26 13 20 30 -5 55 13
55 39 0 25 7 24 20 -2z"/>
<path d="M1557 690 c-30 -24 -50 -78 -42 -113 15 -58 106 -96 160 -67 44 24
72 119 43 148 -20 20 -24 14 -20 -25 5 -51 -25 -83 -77 -83 -70 0 -108 73 -61
120 25 25 45 25 70 0 20 -20 19 -29 -3 -57 -16 -22 -50 4 -43 33 9 36 -8 29
-22 -9 -15 -42 -15 -48 1 -41 8 3 20 -2 27 -11 19 -23 56 -18 79 11 27 35 26
59 -4 89 -30 31 -73 32 -108 5z"/>
<path d="M284 605 c-10 -8 -28 -15 -40 -15 -31 0 -34 -8 -19 -58 18 -60 45
-86 90 -86 23 0 32 -3 25 -10 -26 -26 3 -76 45 -76 29 0 95 60 95 87 0 11 -10
29 -22 41 -66 62 -70 72 -32 72 14 0 23 4 19 10 -3 6 -17 10 -30 10 -14 0 -39
9 -57 20 -39 24 -48 24 -74 5z m56 -15 c11 -7 7 -10 -18 -10 -20 0 -31 4 -27
10 8 13 26 13 45 0z m-33 -78 c17 2 32 12 39 26 7 13 14 19 18 14 9 -15 -33
-62 -55 -62 -26 0 -59 35 -59 63 1 18 3 16 15 -11 12 -28 19 -33 42 -30z m-20
36 c-3 -8 -6 -5 -6 6 -1 11 2 17 5 13 3 -3 4 -12 1 -19z m38 2 c3 -5 1 -10 -4
-10 -6 0 -11 5 -11 10 0 6 2 10 4 10 3 0 8 -4 11 -10z m80 -66 c-17 -26 -14
-29 15 -14 36 19 30 -8 -11 -45 -30 -27 -44 -34 -52 -26 -8 8 -8 14 0 22 6 6
9 17 7 23 -3 7 4 21 16 31 11 10 20 24 20 32 0 8 5 11 11 8 7 -5 5 -15 -6 -31z"/>
<path d="M1427 509 c-37 -30 -50 -69 -23 -69 9 0 12 -7 9 -20 -3 -11 2 -31 11
-45 24 -36 71 -34 119 6 l37 31 18 -22 18 -22 32 32 c35 35 39 51 17 70 -23
19 -59 4 -101 -40 -38 -40 -70 -50 -92 -28 -23 23 -13 55 24 83 35 26 36 29
19 42 -28 20 -47 16 -88 -18z m63 2 c0 -15 -42 -41 -53 -34 -6 4 0 14 12 25
25 20 41 23 41 9z m175 -79 c-2 -3 -11 0 -18 6 -8 7 -17 9 -21 5 -4 -4 -4 1 0
10 6 17 8 17 25 1 11 -10 17 -19 14 -22z m-32 -9 c9 -9 -13 -34 -24 -27 -14 8
-11 34 4 34 8 0 17 -3 20 -7z"/>
<path d="M1264 450 c-54 -27 -86 -62 -78 -84 5 -12 14 -16 31 -13 18 3 21 1
14 -6 -14 -14 -14 -47 -1 -47 6 0 10 -11 10 -23 0 -51 62 -72 120 -42 69 36
81 106 26 161 -19 19 -36 42 -38 52 -5 25 -37 25 -84 2z m66 -17 c-1 -7 -70
-44 -115 -62 -24 -10 22 32 54 49 38 20 61 25 61 13z m32 -50 c18 -16 24 -59
10 -79 -14 -20 -57 -44 -78 -44 -35 0 -36 27 -2 53 33 26 31 43 -6 57 -21 8
-21 8 4 18 36 15 51 14 72 -5z m-72 -43 c0 -5 -7 -10 -15 -10 -8 0 -15 5 -15
10 0 6 7 10 15 10 8 0 15 -4 15 -10z"/>
<path d="M661 396 c-10 -12 -11 -19 -2 -30 9 -10 8 -15 -4 -20 -8 -3 -15 -14
-15 -24 0 -11 -7 -25 -16 -32 -23 -20 -14 -69 17 -92 14 -11 44 -22 67 -25 36
-5 45 -2 72 25 23 24 30 39 30 71 0 22 5 43 10 46 23 14 9 45 -29 65 -57 29
-114 36 -130 16z m115 -38 c13 -6 24 -15 24 -20 0 -4 -1 -8 -2 -8 -15 2 -110
39 -116 45 -9 10 63 -3 94 -17z m-27 -33 c35 -18 43 -37 31 -70 -16 -43 -83
-50 -126 -14 -33 27 -3 56 41 39 20 -8 27 -6 32 6 3 9 1 25 -6 35 -14 23 -9
24 28 4z m-39 -25 c0 -5 -7 -7 -15 -4 -8 4 -12 10 -9 15 6 11 24 2 24 -11z"/>
<path d="M1065 328 c-21 -12 -35 -28 -35 -41 0 -5 12 1 26 12 27 21 78 28 101
13 12 -7 33 -54 33 -73 0 -23 -42 -49 -80 -49 -33 0 -40 3 -40 20 0 15 9 22
30 27 34 6 37 28 8 47 -13 8 -26 8 -46 0 -22 -9 -33 -8 -47 2 -44 32 -125 -4
-125 -56 0 -17 4 -19 25 -14 19 5 25 2 25 -10 0 -21 -46 -32 -66 -15 -23 19
-14 72 14 84 27 12 29 25 4 25 -32 0 -62 -42 -62 -87 0 -45 25 -75 62 -74 13
0 46 0 74 0 33 1 56 6 64 15 10 13 15 13 36 0 27 -18 83 -13 121 11 43 28 37
127 -10 160 -25 18 -84 19 -112 3z m-74 -74 c11 -14 10 -18 -6 -30 -16 -12
-20 -12 -28 1 -4 8 -17 15 -29 15 -17 0 -18 2 -8 15 16 20 54 19 71 -1z m119
6 c0 -5 -7 -10 -15 -10 -8 0 -15 5 -15 10 0 6 7 10 15 10 8 0 15 -4 15 -10z
m-100 -69 c0 -6 -4 -13 -10 -16 -5 -3 -10 1 -10 9 0 9 5 16 10 16 6 0 10 -4
10 -9z"/>
</g>
</svg>
